<?xml version="1.0" encoding="iso-8859-1"?>
<!-- Generator: Adobe Illustrator 19.2.1, SVG Export Plug-In . SVG Version: 6.00 Build 0)  -->
<!DOCTYPE svg PUBLIC "-//W3C//DTD SVG 1.1//EN" "http://www.w3.org/Graphics/SVG/1.1/DTD/svg11.dtd">
<svg version="1.1" id="Ebene_1" xmlns="http://www.w3.org/2000/svg" xmlns:xlink="http://www.w3.org/1999/xlink" x="0px" y="0px"
	 viewBox="0 0 408 81" style="enable-background:new 0 0 408 81;" xml:space="preserve">
<path style="fill:none;enable-background:new    ;" d="z"/>
<g>
	<defs>
		<rect id="SVGID_1_" x="0.5" width="406.919" height="80"/>
	</defs>
	<clipPath id="SVGID_2_">
		<use xlink:href="#SVGID_1_"  style="overflow:visible;"/>
	</clipPath>
	<path style="clip-path:url(#SVGID_2_);fill:#FFFFFF;" d="M23.636,48.725c0,4.265-2.29,6.95-6.002,6.95
		c-5.21,0-8.288-5.764-8.288-15.952c0-10.109,2.601-14.926,8.049-14.926c4.026,0,6.241,2.687,6.241,7.504V48.725z M32.243,62.467
		V22.191h-8.607v2.449c-2.449-2.212-4.979-3.159-8.607-3.159C6.259,21.481,0.5,28.825,0.5,39.96
		c0,11.373,5.918,19.034,14.764,19.034c3.079,0,4.975-0.713,8.372-2.845v3.871v5.685c-0.084,1.817-0.235,3.553-0.638,5.212
		c-0.788,3.553-3.624,5.922-7.025,5.922c-2.919,0-4.899-1.656-4.899-4.026c0-0.395,0.084-0.632,0.243-1.026l0.235-0.633
		c0.554-1.185,0.713-2.132,0.713-3.237c0-2.923-2.214-5.056-5.293-5.056c-3.477,0-5.763,2.37-5.763,6.002
		c0,6.398,5.763,10.584,14.609,10.584C26.639,79.447,32.243,73.682,32.243,62.467 M64.46,40.356c0,11.845-2.21,16.188-8.217,16.188
		c-5.922,0-8.132-4.343-8.132-16.188c0-11.768,2.21-16.19,8.132-16.19C62.25,24.166,64.46,28.588,64.46,40.356 M73.302,40.356
		c0-11.61-6.476-18.717-17.059-18.717c-10.582,0-16.974,7.107-16.974,18.717c0,11.608,6.392,18.716,16.974,18.716
		C66.826,59.072,73.302,51.964,73.302,40.356 M133.693,8.766c0-4.818-6.401-8.766-14.374-8.766c-5.453,0-10.029,1.817-13.032,4.974
		c-2.45,2.607-3.083,5.293-3.083,11.295v10.504c0,5.132-2.605,8.133-7.181,8.133c-3.792,0-5.851-2.29-5.851-6.396V2.814H73.751
		l0.314,1.343c0,0.236-0.159,0.71-0.314,1.264h3.708c3.166,0,4.265,1.342,4.265,5.528v15.507c0,3.949,0.394,5.923,1.821,7.74
		c1.895,2.604,5.284,3.948,9.475,3.948c4.261,0,7.499-1.106,10.184-3.633v11.057c0,7.818-2.211,10.897-7.969,10.897
		c-3.088,0-4.744-1.342-4.744-3.79c0-0.79,0.155-1.422,0.474-2.29l0.314-0.869c0.164-0.474,0.315-1.185,0.315-1.816
		c0-2.606-2.366-4.818-5.285-4.818c-3.243,0-5.684,2.606-5.684,6.003c0,5.922,6.074,10.187,14.366,10.187
		c4.899,0,9.316-1.5,12.478-4.422c3.163-2.843,4.266-5.845,4.266-12.084V14.848c0-8.926,1.976-12.163,7.424-12.163
		c2.92,0,5.369,1.185,5.369,2.526c0,0.397-0.076,0.711-0.394,1.185c-0.474,0.791-0.789,1.896-0.789,3.002
		c0,2.684,2.211,4.739,4.971,4.739C131.319,14.137,133.693,11.767,133.693,8.766 M171.643,39.486
		c0,11.373-2.449,16.426-7.897,16.426c-4.345,0-7.03-3.079-7.03-8.212V36.643c0-8.212,2.365-11.926,7.583-11.926
		C169.429,24.717,171.643,29.141,171.643,39.486 M180.565,39.803c0-11.531-5.13-18.164-14.135-18.164
		c-3.792,0-6.795,1.184-9.714,3.789v-3h-15.951c0.239,0.632,0.318,1.027,0.318,1.343c0,0.237-0.079,0.71-0.318,1.263h3.473
		c3.162,0,4.186,1.422,4.186,5.528v16.442c-0.007-0.006-0.011-0.008-0.017-0.014c-2.366,5.448-5.608,8.448-9.081,8.448
		c-3.716,0-5.059-2.209-5.059-8.134V22.428h-16.584c0.164,0.632,0.239,1.027,0.239,1.343c0,0.237-0.075,0.71-0.239,1.263h3.712
		c3.163,0,4.27,1.342,4.27,5.528v18.323c0,6.475,3.867,10.109,10.733,10.109c4.999,0,8.948-2.31,12.026-6.855V72.34
		c0,4.658-0.478,5.447-3.712,5.447h-2.957V80h6.669h8.292h6.677v-2.213h-2.969c-3.234,0-3.708-0.789-3.708-5.447V55.281
		c2.214,2.448,5.218,3.713,9.085,3.713C174.722,58.994,180.565,51.411,180.565,39.803 M211.444,39.486
		c0,11.373-2.449,16.426-7.894,16.426c-4.341,0-7.034-3.079-7.034-8.212V36.643c0-8.212,2.374-11.926,7.584-11.926
		C209.238,24.717,211.444,29.141,211.444,39.486 M220.37,39.803c0-11.531-5.134-18.164-14.135-18.164
		c-3.788,0-6.791,1.184-9.719,3.789v-3h-15.951c0.239,0.632,0.319,1.027,0.319,1.343c0,0.237-0.08,0.71-0.319,1.263h3.481
		c3.159,0,4.186,1.422,4.186,5.528V72.34c0,4.658-0.474,5.447-3.712,5.447h-2.965V80h6.677h8.284h6.678v-2.213h-2.957
		c-3.243,0-3.721-0.789-3.721-5.447V55.281c2.215,2.448,5.218,3.713,9.09,3.713C214.527,58.994,220.37,51.411,220.37,39.803
		 M237.835,8.688c0-2.923-2.365-5.372-5.364-5.372c-3.004,0-5.453,2.449-5.453,5.372c0,3,2.449,5.449,5.453,5.449
		C235.47,14.137,237.835,11.688,237.835,8.688 M253.711,48.094c-1.183-0.157-1.418-0.316-2.29-1.104
		c-2.366,5.448-5.608,8.448-9.081,8.448c-3.712,0-5.054-2.209-5.054-8.134V22.428h-16.589c0.163,0.632,0.243,1.027,0.243,1.343
		c0,0.237-0.08,0.71-0.243,1.263h3.716c3.159,0,4.266,1.342,4.266,5.528v18.323c0,6.475,3.867,10.109,10.738,10.109
		C245.738,58.994,250.398,55.36,253.711,48.094"/>
	<path style="clip-path:url(#SVGID_2_);fill:#FFFFFF;" d="M360.878,26.228c-1.109-1.583-2.85-2.454-5.145-2.454
		c-4.908,0-7.836,3.166-7.836,8.469v15.435c0,6.174,2.137,8.865,6.965,8.865c6.253,0,8.074-3.957,8.074-17.334
		C362.936,31.927,362.382,28.444,360.878,26.228 M316.711,32.718c0-5.145-2.295-8.311-5.936-8.311c-4.591,0-7.52,5.62-7.52,14.723
		c0,10.052,2.929,16.147,7.678,16.147c3.325,0,5.778-3.325,5.778-7.836V32.718z M354.625,59.076c-5.779,0-10.528-2.374-13.061-6.649
		c-0.405-0.682-0.731-1.317-1.003-1.972c-3.577,5.56-7.954,8.384-13.085,8.384c-4.037,0-7.045-1.504-9.657-4.67
		c-2.612,3.087-5.461,4.511-8.865,4.511c-4.362,0-8.11-2.333-10.704-6.1c-2.994,4.241-6.718,6.259-11.537,6.259
		c-3.879,0-7.282-1.504-9.34-4.037c-1.663-2.137-2.217-4.195-2.217-8.232V13.484c0-4.116-1.029-5.541-4.274-5.541h-3.641
		c0.158-0.554,0.238-1.028,0.238-1.266c0-0.316-0.08-0.712-0.238-1.346h16.543v39.181c0,7.599,1.504,10.211,5.857,10.211
		c2.885,0,5.217-1.616,7.076-4.811c-1.364-2.921-2.168-6.391-2.168-10.228c0-10.923,6.015-18.443,14.722-18.443
		c2.849,0,5.145,0.95,7.44,3.087v-2.374h8.628v26.041c0,4.828,1.741,7.282,5.145,7.282c3.031,0,6.661-3.152,9.265-7.912
		c-0.235-1.604-0.322-3.598-0.322-6.494V13.484c0-4.116-1.108-5.541-4.274-5.541h-3.404c0.159-0.554,0.238-1.028,0.238-1.266
		c0-0.316-0.079-0.712-0.238-1.346h16.148v19.155c2.453-2.295,5.065-3.245,9.181-3.245c9.815,0,14.723,5.857,14.723,17.651
		C371.801,52.19,365.943,59.076,354.625,59.076 M401.641,33.589c-2.691,0-4.67-1.741-4.67-4.037c0-0.554,0.158-0.95,0.475-1.741
		c0.158-0.475,0.237-0.792,0.237-1.187c0-1.979-2.058-3.246-5.303-3.246c-3.799,0-6.015,1.9-6.015,5.304
		c0,2.453,1.266,3.799,5.303,5.54l6.649,2.929c6.807,3.008,9.102,5.699,9.102,10.527c0,7.045-5.857,11.398-15.276,11.398
		c-8.47,0-14.248-3.72-14.248-9.023c0-3.008,1.979-5.145,4.908-5.145c2.691,0,4.828,1.9,4.828,4.432
		c0,0.792-0.079,1.346-0.317,2.058c-0.237,0.792-0.395,1.188-0.395,1.583c0,2.375,2.137,3.879,5.54,3.879
		c4.354,0,7.124-2.691,7.124-6.807c0-2.929-1.425-4.67-5.145-6.253l-7.124-3.008c-6.332-2.691-8.627-5.303-8.627-9.657
		c0-6.253,5.303-9.894,14.405-9.894c8.312,0,13.536,2.85,13.536,7.441C406.628,31.452,404.411,33.589,401.641,33.589"/>
</g>
</svg>
